<?xml version="1.0" encoding="UTF-8" standalone="no"?>
<!-- Created with Inkscape (http://www.inkscape.org/) -->

<svg
   width="80.177124mm"
   height="77.112518mm"
   viewBox="0 0 80.177124 77.112518"
   version="1.1"
   id="svg1"
   xml:space="preserve"
   inkscape:export-filename=".\растровый.png"
   inkscape:export-xdpi="1435.88"
   inkscape:export-ydpi="1435.88"
   inkscape:version="1.3.2 (091e20e, 2023-11-25, custom)"
   sodipodi:docname="logo.svg"
   xmlns:inkscape="http://www.inkscape.org/namespaces/inkscape"
   xmlns:sodipodi="http://sodipodi.sourceforge.net/DTD/sodipodi-0.dtd"
   xmlns="http://www.w3.org/2000/svg"
   xmlns:svg="http://www.w3.org/2000/svg"><sodipodi:namedview
     id="namedview1"
     pagecolor="#ffffff"
     bordercolor="#000000"
     borderopacity="0.25"
     inkscape:showpageshadow="2"
     inkscape:pageopacity="0.0"
     inkscape:pagecheckerboard="0"
     inkscape:deskcolor="#d1d1d1"
     inkscape:document-units="mm"
     inkscape:export-bgcolor="#ffffff00"
     inkscape:zoom="0.70710678"
     inkscape:cx="445.47727"
     inkscape:cy="468.81179"
     inkscape:window-width="1920"
     inkscape:window-height="991"
     inkscape:window-x="-9"
     inkscape:window-y="-9"
     inkscape:window-maximized="1"
     inkscape:current-layer="layer1" /><defs
     id="defs1" /><g
     inkscape:label="Слой 1"
     inkscape:groupmode="layer"
     id="layer1"
     transform="translate(-64.65677,-103.80232)"><path
       style="fill:#000000;fill-opacity:1;stroke-width:0.211605"
       d="m 105.8482,180.44794 c 7.25741,-3.29721 13.63218,-7.46654 19.22771,-12.57562 1.04471,-0.95389 3.39452,-3.32111 4.33585,-4.36799 5.66124,-6.29599 9.91434,-13.44857 12.4869,-20.9996 2.12641,-6.2415 3.11225,-12.00687 2.9092,-17.01348 -0.38731,-9.54993 -4.62354,-16.47306 -12.06171,-19.71205 -2.20949,-0.96214 -4.6246,-1.5442 -7.81022,-1.88234 -0.49083,-0.0521 -5.42383,-0.0728 -20.75726,-0.087 -18.150633,-0.0168 -20.113421,-0.0102 -20.113421,0.0682 0,0.28519 -0.191745,1.85803 -0.310533,2.54717 -0.762719,4.42512 -2.687542,8.35376 -5.717776,11.67022 -2.175683,2.38118 -5.104748,4.49224 -8.216117,5.92159 -1.431659,0.6577 -3.368414,1.36533 -4.722938,1.72563 -0.369484,0.0983 -0.458484,0.14185 -0.438486,0.2147 0.01383,0.0502 0.04104,0.24256 0.06051,0.42731 0.01948,0.18476 0.110588,0.86205 0.202472,1.50509 1.817008,12.71687 6.463956,24.03428 13.646347,33.235 5.354708,6.85943 12.031811,12.47565 20.053209,16.86704 2.056803,1.12601 5.917583,2.96517 6.134523,2.92229 0.0637,-0.0126 0.55502,-0.22242 1.09175,-0.46626 z m -2.41136,-3.10587 c -3.9082,-1.85757 -7.41699,-3.92839 -10.637586,-6.27811 -6.948094,-5.06926 -12.574232,-11.35031 -16.898522,-18.8656 -0.79824,-1.38728 -2.291118,-4.33778 -2.933927,-5.79856 -2.000999,-4.54726 -3.502323,-9.27857 -4.521217,-14.24833 -0.256421,-1.25072 -0.728278,-3.95377 -0.728479,-4.17315 -1.26e-4,-0.12993 0.0513,-0.16054 0.601729,-0.3581 0.905556,-0.32504 2.414931,-0.97949 3.421805,-1.48367 7.82268,-3.9171 13.100893,-10.65968 14.619463,-18.67546 0.06415,-0.33872 0.128965,-0.67308 0.143989,-0.74302 l 0.02728,-0.12715 18.908335,0.0169 c 17.51958,0.0157 18.96795,0.0241 19.72013,0.11395 3.77224,0.45062 6.61935,1.40331 9.07988,3.03828 4.40175,2.92487 6.99668,7.65102 7.69851,14.02127 0.15738,1.4285 0.14251,4.87335 -0.0278,6.43853 -0.21003,1.93029 -0.4121,3.17261 -0.8171,5.02365 -1.40007,6.39888 -3.90114,12.52173 -7.40584,18.13012 -3.88346,6.21451 -9.15042,11.89094 -15.33009,16.52191 -3.26559,2.44718 -6.52036,4.47846 -10.32964,6.44661 -1.25972,0.65087 -3.21783,1.58045 -3.31857,1.57543 -0.0378,-0.002 -0.61034,-0.26088 -1.27239,-0.57555 z"
       id="path2-4-6-3"
       sodipodi:nodetypes="ssssssssssssssssssssscsssssssscssssssssscscc" /><path
       id="path11-7-8-3-1"
       style="fill:#000000;fill-opacity:1;stroke-width:0.0445152"
       d="m 108.89907,109.97132 3.8e-4,10e-4 c -0.19346,0.004 -0.38594,0.0529 -0.54282,0.1406 -0.22595,0.1263 -0.44626,0.32429 -0.55511,0.49864 -0.0356,0.0571 -0.1616,0.21572 -0.27967,0.35267 -0.21366,0.24779 -0.21843,0.25468 -1.02188,1.45289 -0.4075,0.60776 -0.69014,1.03221 -0.74565,1.11869 -0.37164,0.0578 -0.74345,0.13682 -1.11484,0.2278 0.2039,0.53434 0.30672,0.98396 0.36918,1.58236 0.007,0.0685 0.0105,0.21136 0.0127,0.36803 0.48516,-0.12554 0.97094,-0.2308 1.45981,-0.28966 0.43091,-0.0519 0.59318,-0.0599 1.19513,-0.0599 0.60249,-1e-5 0.72344,0.006 1.13097,0.0542 1.73589,0.20608 3.4513,0.86624 5.94183,2.28692 2.75559,1.57185 5.42043,3.35475 7.91489,5.29528 0.79955,0.62201 1.1403,0.90687 1.59658,1.33382 0.91398,0.85521 1.50873,1.74421 1.84244,2.75482 0.047,0.14235 0.0842,0.2858 0.11909,0.42987 -0.0946,0.0462 -0.18954,0.0898 -0.22857,0.10296 -0.0962,0.0323 -0.28003,0.0532 -0.47291,0.0534 -0.49439,6.9e-4 -0.84436,0.17067 -1.0042,0.48866 -0.056,0.11148 -0.0778,0.22139 -0.0707,0.35612 0.0109,0.20691 0.0897,0.38527 0.2424,0.54782 0.16035,0.17071 0.29918,0.2535 0.75565,0.45062 0.36886,0.15928 0.56289,0.26082 0.81826,0.42872 -0.0979,0.55002 -0.2575,1.13439 -0.49057,1.77444 -0.30407,0.83509 -0.87225,2.12655 -1.09831,2.49706 -0.35151,0.57609 -0.79885,0.87127 -1.53704,1.0138 -0.19969,0.0386 -0.39628,0.0591 -0.64885,0.0741 0.12429,-0.18039 0.24335,-0.36539 0.35612,-0.55704 0.1315,-0.2235 0.4013,-0.75859 0.49902,-0.9896 0.3264,-0.77158 0.54535,-1.57832 0.6477,-2.38641 0.0445,-0.35152 0.0603,-0.57746 0.0676,-0.96848 0.007,-0.3871 0.007,-0.38732 -0.62772,-0.37994 -0.34915,0.004 -0.72519,0.0104 -0.83593,0.0142 -0.20134,0.007 -0.20166,0.007 -0.20899,0.26815 -0.0435,1.54821 -0.57055,3.06717 -1.49785,4.31682 -0.23805,0.32081 -0.42359,0.53495 -0.72376,0.83671 -0.0757,0.0153 -0.15062,0.0294 -0.22934,0.0488 -0.40124,0.0989 -0.75971,0.24252 -1.08449,0.42911 -0.505,0.15226 -1.05785,0.19758 -1.67187,0.24356 -0.40663,0.0305 -1.34893,0.005 -1.63692,-0.0434 -0.72754,-0.10068 -1.43998,-0.16151 -2.1732,-0.2401 -0.52303,-0.056 -2.53058,0.84721 -2.66724,0.93467 -0.0487,0.0311 -0.48077,0.33789 -0.47598,0.34151 0.002,0.001 0.15827,0.0233 0.34614,0.0477 0.60025,0.0776 1.74932,0.23799 2.74983,0.38339 0.9868,0.14341 1.46843,0.20763 1.80786,0.24202 0.10365,0.0105 0.29457,0.0349 0.42412,0.0538 0.39722,0.058 0.64491,0.0849 1.00727,0.10949 0.0887,0.006 0.33957,0.007 0.54858,0.003 -0.23124,0.55184 -0.39966,1.19579 -0.52092,1.99457 -0.10571,0.69639 -0.15145,1.62631 -0.10026,2.14939 0.006,0.0648 -0.0745,-0.0863 0.19284,0.74988 0.0126,0.0392 0.29569,0.52315 0.5651,0.91047 0.24046,0.34569 0.42587,0.65727 0.43987,0.65346 0.005,3.2e-4 0.009,-0.008 0.009,-0.0181 0,-0.0181 0.30605,-2.35166 0.40145,-3.06099 0.12755,-0.94837 0.23442,-1.4738 0.40645,-1.9965 0.13,-0.39503 0.26118,-0.62889 0.48135,-0.85783 0.16864,-0.17535 0.34772,-0.31979 0.68304,-0.55051 0.22516,-0.15493 0.31502,-0.21029 0.4656,-0.28696 0.38349,-0.19528 0.86938,-0.33669 1.33689,-0.38916 0.0583,-0.007 0.2886,-0.0172 0.51209,-0.0238 1.36225,-0.0399 1.67594,-0.0929 2.23198,-0.37686 0.32118,-0.16403 0.4616,-0.24168 0.51247,-0.28351 0.0546,-0.0449 0.20437,-0.13252 0.62849,-0.3688 0.39569,-0.22043 0.47192,-0.27047 0.63271,-0.4122 0.39448,-0.34771 0.73927,-0.89277 1.14749,-1.81517 0.93468,-2.11193 1.32277,-3.43721 1.40873,-4.81124 0.0168,-0.26876 0.007,-0.84217 -0.0188,-1.09563 -0.0879,-0.86741 -0.32089,-1.66971 -0.71455,-2.46133 -0.40689,-0.81824 -0.89031,-1.47307 -1.63998,-2.22046 -0.41654,-0.41526 -0.85005,-0.79597 -1.45598,-1.27887 -2.97718,-2.37269 -6.52145,-4.73724 -9.81803,-6.55034 -1.029,-0.56596 -1.98225,-1.01177 -2.8862,-1.35494 0.0186,-0.002 0.0763,-0.007 0.0768,-0.007 0.003,-0.003 1.2e-4,-0.1719 -0.007,-0.37456 -0.0132,-0.36845 -0.013,-0.36832 -0.073,-0.55088 -0.37647,-1.14583 -1.06714,-2.13819 -2.01109,-2.89005 -0.36004,-0.28679 -0.61242,-0.4137 -0.90278,-0.45408 -0.0633,-0.009 -0.12797,-0.0126 -0.19246,-0.0112 z m -8.86953,0.33499 c -0.294628,0.013 -0.570028,0.12861 -0.884729,0.36803 -0.75604,0.57517 -1.47097,1.42886 -1.8555,2.21546 -0.29245,0.59821 -0.42056,1.17009 -0.40222,1.79481 0.0164,0.5568 0.14327,1.06316 0.38954,1.55393 0.0994,0.198 0.14639,0.27467 0.40991,0.66844 0.78778,1.17715 1.55068,2.1123 2.551979,3.12747 0.33433,0.33896 0.33446,0.33882 1.4894,0.33882 0.9761,0 1.12333,-7.4e-4 1.12444,-0.0246 4e-5,0 10e-4,7.4e-4 10e-4,7.4e-4 0.004,-0.0396 0.60208,-1.03798 0.66767,-1.23085 0.20998,-0.61756 0.33417,-1.20113 0.40721,-1.9139 0.0202,-0.19826 0.0198,-0.94692 -3.8e-4,-1.1425 -0.0798,-0.76429 -0.22188,-1.28376 -0.56164,-2.05027 -0.38216,-0.86213 -0.92107,-1.67871 -1.55048,-2.34992 -0.0735,-0.0784 -0.28996,-0.32501 -0.48097,-0.54781 -0.19102,-0.2228 -0.38265,-0.43993 -0.42604,-0.48251 -0.20196,-0.1982 -0.45966,-0.30956 -0.7518,-0.325 -0.043,-0.002 -0.0852,-0.002 -0.12716,-3.9e-4 z m 8.98363,1.52513 c 0.0176,0 0.38904,0.37459 0.49595,0.50017 0.37029,0.43498 0.62547,0.88839 0.77831,1.38645 -0.43137,-0.10483 -0.85389,-0.18527 -1.2685,-0.2378 -0.37067,-0.047 -0.74602,-0.071 -1.12368,-0.0811 0.0501,-0.0708 0.0822,-0.11552 0.13446,-0.18939 0.53604,-0.75792 0.9786,-1.37837 0.98346,-1.37837 z m -8.98863,0.33345 c 0.006,-6.5e-4 0.0101,0.003 0.0146,0.009 0.0101,0.0128 0.11677,0.13889 0.23703,0.28044 1.13679,1.33807 1.63175,2.16138 1.87202,3.11364 0.0882,0.34951 0.12228,0.62635 0.12139,0.98345 -6.9e-4,0.41862 -0.004,0.43916 -0.26161,1.60119 -0.0496,0.22402 -0.13719,0.68761 -0.21091,1.08756 -0.55978,-0.58362 -0.78059,-0.81825 -1.03185,-1.10446 -0.704,-0.80193 -1.441809,-1.7598 -1.747169,-2.2681 -0.20323,-0.33829 -0.34465,-0.68717 -0.4003,-0.98844 -0.0299,-0.16148 -0.0266,-0.43497 0.007,-0.60659 0.11579,-0.58617 0.50103,-1.20329 1.196291,-1.91698 0.14363,-0.14743 0.184338,-0.18868 0.203208,-0.19054 z m 4.8585,1.11138 0.009,0.0196 c -0.003,-0.007 -0.006,-0.0129 -0.009,-0.0196 z m -7.748159,4.55578 c -0.14995,0.11776 -0.29322,0.22712 -0.45331,0.35803 -1.19526,0.97736 -3.63888,3.0412 -5.779724,4.88154 -0.779029,0.66969 -0.977457,0.84596 -0.965778,0.85746 0.0081,0.008 0.804907,0.30447 1.342262,0.16519 1.94173,-0.50331 1.19949,-0.34891 2.03106,-0.70955 2.3825,-1.03327 3.58987,-2.77009 4.68793,-3.67144 0.13507,-0.11087 0.25394,-0.20155 0.37994,-0.30118 -0.44093,-0.50531 -0.84407,-1.01833 -1.24238,-1.58005 z m 12.845979,2.38987 c -0.19237,4e-5 -0.38424,0.005 -0.46944,0.0158 -0.41585,0.0508 -0.34764,0.0831 -0.60274,0.18939 -0.26103,0.10876 -0.34389,0.54614 -0.27814,0.84861 0.0145,0.0668 0.0669,0.0865 0.0438,0.26162 -0.0335,0.253 -0.005,0.5428 0.078,0.80213 0.0482,0.14953 0.1838,0.41613 0.27929,0.54935 0.0924,0.12896 0.28887,0.33826 0.41182,0.43871 0.4107,0.33561 0.96415,0.54477 1.5935,0.60275 0.12015,0.0111 0.66981,-0.004 0.79484,-0.0211 0.29228,-0.0411 0.55835,-0.10145 0.80328,-0.18247 0.1556,-0.0515 0.35614,-0.12933 0.42796,-0.16596 0.0247,-0.0126 0.22962,-0.066 0.45522,-0.11871 0.34882,-0.0815 0.43559,-0.058 0.48251,-0.0899 0.31856,-0.21624 0.20808,-0.62925 0.19285,-0.67343 -0.11135,-0.32308 -0.19806,-0.49344 -0.56741,-0.85514 -0.93238,-0.91306 -2.00138,-1.44764 -3.17241,-1.58621 -0.0875,-0.0103 -0.28052,-0.0154 -0.4729,-0.0154 z m 9.46461,7.09085 c -0.4064,0 -0.7267,0.26937 -0.75027,0.63041 -0.0121,0.18625 0.0498,0.34327 0.19054,0.48251 0.0896,0.0887 0.18199,0.14782 0.35957,0.22935 0.13786,0.0633 0.20353,0.10359 0.19747,0.12178 -0.009,0.0272 -0.1118,0.0675 -0.28851,0.11371 -0.0987,0.0258 -0.21883,0.0633 -0.26699,0.0834 -0.21052,0.0876 -0.37384,0.25004 -0.44448,0.44179 -0.0387,0.1049 -0.0387,0.32114 0,0.43333 0.086,0.24902 0.30767,0.43435 0.59315,0.49634 0.10109,0.0219 0.26935,0.0217 0.38608,-3.9e-4 0.21138,-0.0401 0.37057,-0.11668 0.71147,-0.34305 0.26834,-0.1782 0.46215,-0.28068 0.84323,-0.44525 0.45648,-0.19712 0.59531,-0.2799 0.75565,-0.45062 0.15267,-0.16253 0.23184,-0.34051 0.24279,-0.54743 0.007,-0.13473 -0.015,-0.24503 -0.0711,-0.3565 -0.15984,-0.31798 -0.50943,-0.48809 -1.00382,-0.48865 -0.19288,-2.3e-4 -0.37669,-0.0211 -0.47289,-0.0534 -0.0481,-0.0161 -0.18032,-0.0764 -0.29351,-0.13407 -0.31879,-0.16246 -0.48203,-0.21283 -0.68841,-0.21283 z" /><path
       style="fill:#000000;fill-opacity:1;stroke-width:0.102264"
       d="m 84.858712,146.95415 -0.139994,-0.0538 -0.109089,-0.10909 -0.109081,-0.10909 -0.05797,-0.1536 -0.05797,-0.15359 0.01347,-0.15365 0.01347,-0.15364 0.07576,-0.13922 0.07576,-0.13921 0.104883,-0.0831 0.104889,-0.0831 0.09942,-0.0355 0.09943,-0.0355 6.331428,-7.6e-4 6.33142,-7.6e-4 0.100779,0.028 0.100779,0.028 0.112908,0.0869 0.112914,0.0869 0.07973,0.14195 0.07973,0.14196 0.01362,0.15567 0.01362,0.15568 -0.05797,0.1536 -0.05797,0.1536 -0.109005,0.109 -0.109005,0.10901 -0.147852,0.0553 -0.147845,0.0553 -6.310122,-0.001 -6.310113,-0.001 z m 0.551041,-1.68659 -0.130098,-0.035 -0.09208,-0.0892 -0.09209,-0.0892 -0.04161,-0.0877 -0.04161,-0.0877 v -3.81202 -3.81204 l 0.06085,-0.12036 0.06085,-0.12037 0.117326,-0.0816 0.117326,-0.0815 h 5.947957 5.947955 l 0.11525,0.0811 0.115251,0.0812 0.06298,0.11925 0.06298,0.11925 v 3.81351 3.8135 l -0.04336,0.0914 -0.04335,0.0914 -0.102293,0.0924 -0.102294,0.0924 -0.139766,0.03 -0.139774,0.03 -5.755125,-10e-4 -5.755124,-0.001 z m 11.122266,-4.17556 0.0069,-3.0913 h -5.222187 -5.222187 v 3.08003 3.08003 l 0.0181,0.0181 0.0181,0.0181 5.197206,-0.007 5.197199,-0.007 z"
       id="path19"
       sodipodi:nodetypes="ccccccccccccccccccccccccccccccccccccccccccccccccccccccccccccccccccccccccc" /><path
       id="path1-13-1"
       style="fill:#000000;fill-opacity:1;stroke-width:0.216475"
       d="m 84.384545,147.78059 v 0.68697 0.68735 h 0.260952 c 0.414931,0 0.765137,0.11354 0.964039,0.31244 0.351064,0.35107 0.341854,0.2281 0.364312,4.89602 0.02129,4.42619 -0.0046,5.11285 -0.202401,5.38766 -0.05674,0.0787 -0.256883,0.22068 -0.444485,0.3152 -0.314696,0.15852 -0.385301,0.17118 -0.913723,0.16584 l -0.02122,1.38808 6.002316,-0.0138 0.01574,-0.66143 0.01613,-0.66141 -0.41894,-0.0602 c -0.80723,-0.11629 -1.185498,-0.39862 -1.173108,-1.0674 l 0.04639,-2.50106 3.88e-4,-3.9e-4 -0.01536,-1.91825 c -0.0083,-1.05517 0.0061,-2.55709 0.03224,-3.33737 0.0451,-1.35272 0.05407,-1.43044 0.18786,-1.67301 0.184521,-0.3345 0.514656,-0.51769 1.002939,-0.55688 l 0.288855,-0.0235 2.068763,0.0358 c 0.748771,0.1074 1.152629,0.40981 1.274508,0.9546 0.03764,0.16824 0.05932,0.36201 0.04875,0.43308 v 0.002 l -0.0046,5.06894 c 0.01704,3.09241 -0.0162,3.68407 -0.229117,4.07346 -0.162543,0.29719 -0.508451,0.48028 -1.004513,0.53213 l -0.357239,0.0373 v 0.6799 0.67949 l 3.021007,-0.0149 3.021394,-0.0145 0.01613,-0.66495 0.01613,-0.66457 -0.359209,-0.0373 c -0.536034,-0.056 -0.844693,-0.23213 -1.019054,-0.58085 l -0.143051,-0.28611 -0.01574,-4.5773 c -0.01339,-3.92078 -0.003,-4.61905 0.06997,-4.87086 0.136595,-0.46988 0.438386,-0.67449 1.107874,-0.75024 l 0.355665,-0.04 v -0.6799 -0.67988 h -3.03554 l -4.754146,-4e-4 h -0.288046 -2.747476 z"
       sodipodi:nodetypes="cccssssscccccccccccscccscccssccccccccscccccccccccc" /><path
       d="m 114.41217,160.96269 v -0.67991 l -0.35195,-0.0398 c -0.69783,-0.0789 -1.00611,-0.30478 -1.16576,-0.85399 -0.0744,-0.25596 -0.0847,-0.8439 -0.0721,-4.11431 l 0.0147,-3.81569 1.8901,4.80455 c 1.03955,2.6425 1.90476,4.80494 1.9227,4.80543 0.0179,4.4e-4 0.8634,-2.05525 1.87879,-4.56833 1.01538,-2.51306 1.87089,-4.60719 1.90112,-4.65363 0.0353,-0.0542 0.0496,1.26657 0.0399,3.69575 -0.0147,3.70705 -0.0173,3.78518 -0.13556,4.03793 -0.20279,0.43356 -0.48248,0.59767 -1.13201,0.66422 l -0.37979,0.0389 v 0.67939 0.6794 h 6.29835 l 0.002,-1.46311 c -1.30119,-0.004 -1.50695,-0.15592 -1.60656,-1.18537 -0.0688,-0.71052 -0.068,-8.02215 7.6e-4,-8.62113 0.0961,-0.83623 0.30657,-1.06877 1.06611,-1.17818 l 0.42508,-0.0612 v -0.67652 -0.67653 l -2.38175,0.0149 -2.38174,0.015 -1.3079,3.46517 c -0.71935,1.90584 -1.33076,3.50166 -1.3587,3.54626 -0.0524,0.0837 -0.14822,-0.1593 -1.91237,-4.84869 l -0.82396,-2.1902 -2.47717,-6.4e-4 -2.47716,-6.5e-4 v 0.67713 0.67714 l 0.4053,0.0627 c 0.68218,0.10559 0.95575,0.3703 1.08455,1.04943 0.0778,0.40989 0.0746,8.27094 -0.004,8.75217 -0.0734,0.45274 -0.22634,0.76019 -0.4692,0.94362 -0.20334,0.15359 -0.71348,0.32385 -0.97028,0.32385 h -0.16144 v 0.68731 0.6873 h 2.31966 2.31967 z"
       style="fill:#000000;fill-opacity:1;stroke-width:0.216475"
       id="path1-18-4"
       sodipodi:nodetypes="cccsccscsscsscccccscscccccssscccccsscsscccccc" /><path
       id="path1-0"
       style="fill:#000000;fill-opacity:1;stroke-width:0.216475"
       d="m 107.0788,147.77914 -3.03594,0.0177 -0.004,1.40184 0.27236,0.0176 c 0.74877,0.1074 1.15262,0.40982 1.2745,0.9546 0.0376,0.16824 0.0593,0.36202 0.0487,0.4331 v 0.002 l -1.82392,3.1731 -2.02828,-3.34681 v -0.002 c -0.0106,-0.0711 0.0111,-0.26484 0.0487,-0.43308 0.12187,-0.54479 0.4377,-0.70886 1.18647,-0.81627 l 0.27234,-0.018 v -1.3649 l -3.03593,-0.0172 h -2.054623 v 0.6799 0.67949 l 0.355673,0.04 c 0.669477,0.0757 1.103308,0.72681 1.107868,0.75024 l 3.371182,5.17937 -2.66338,4.61345 c -0.16254,0.29718 -0.508452,0.48027 -1.004515,0.53212 l -0.357235,0.0378 v 0.67949 0.67989 l 3.02101,-0.0149 3.02139,-0.0145 0.0162,-0.66497 0.0161,-0.66455 -0.35919,-0.0373 c -0.53604,-0.0561 -0.8447,-0.23213 -1.01906,-0.58086 l -0.14306,-0.2861 5.08466,-9.42301 c 0.004,-0.0234 0.43838,-0.67449 1.10786,-0.75023 l 0.35567,-0.04 v -0.67989 l 0.004,-0.71683 z"
       sodipodi:nodetypes="ccccscccccsccccccccccccccccccccsccccccc" /></g></svg>
